<svg width="27" height="19" viewBox="0 0 27 19" fill="none" xmlns="http://www.w3.org/2000/svg">
<path fill-rule="evenodd" clip-rule="evenodd" d="M27.0001 9.36645C27.0002 9.64272 26.8988 9.90772 26.718 10.1032C26.5373 10.2986 26.2921 10.4085 26.0364 10.4086L3.2941 10.4207L9.36643 16.9716C9.54759 17.1671 9.64945 17.4324 9.6496 17.709C9.64974 17.9856 9.54817 18.2509 9.36722 18.4466C9.18626 18.6423 8.94076 18.7523 8.68471 18.7525C8.42865 18.7526 8.18303 18.6429 8.00187 18.4474L0.283617 10.1181C0.19377 10.0214 0.122467 9.90652 0.0737909 9.77999C0.0251151 9.65346 2.06201e-05 9.51781 -5.21673e-05 9.38079C-0.000124955 9.24378 0.0248254 9.1081 0.0733667 8.98152C0.121908 8.85494 0.193089 8.73995 0.282833 8.64314L7.99223 0.305729C8.17318 0.110036 8.41869 2.05047e-05 8.67474 -0.000115513C8.93079 -0.000251531 9.17642 0.109503 9.35758 0.305004C9.53874 0.500504 9.6406 0.765736 9.64074 1.04235C9.64089 1.31897 9.53932 1.58431 9.35836 1.78L3.29299 8.33738L26.0353 8.3253C26.291 8.32516 26.5363 8.43478 26.7172 8.63003C26.8982 8.82529 26.9999 9.09018 27.0001 9.36645Z" fill="#240098"/>
</svg>
