<svg width="100" height="90" viewBox="0 0 100 90" fill="none" xmlns="http://www.w3.org/2000/svg">
<path d="M3.33344 0C2.44936 0 1.60148 0.314755 0.976342 0.875023C0.351201 1.43529 0 2.19518 0 2.98752C0 3.77986 0.351201 4.53974 0.976342 5.10001C1.60148 5.66028 2.44936 5.97503 3.33344 5.97503H10.7337L13.4071 15.5769L23.3941 63.2876C23.5371 63.9722 23.9425 64.5905 24.5402 65.0356C25.1379 65.4807 25.8904 65.7247 26.6675 65.7254H33.3344C29.7981 65.7254 26.4066 66.9844 23.906 69.2255C21.4054 71.4665 20.0006 74.5061 20.0006 77.6754C20.0006 80.8448 21.4054 83.8843 23.906 86.1254C26.4066 88.3665 29.7981 89.6255 33.3344 89.6255C36.8707 89.6255 40.2622 88.3665 42.7628 86.1254C45.2634 83.8843 46.6682 80.8448 46.6682 77.6754C46.6682 74.5061 45.2634 71.4665 42.7628 69.2255C40.2622 66.9844 36.8707 65.7254 33.3344 65.7254H80.0026C76.4662 65.7254 73.0747 66.9844 70.5742 69.2255C68.0736 71.4665 66.6688 74.5061 66.6688 77.6754C66.6688 80.8448 68.0736 83.8843 70.5742 86.1254C73.0747 88.3665 76.4662 89.6255 80.0026 89.6255C83.5389 89.6255 86.9304 88.3665 89.431 86.1254C91.9315 83.8843 93.3363 80.8448 93.3363 77.6754C93.3363 74.5061 91.9315 71.4665 89.431 69.2255C86.9304 66.9844 83.5389 65.7254 80.0026 65.7254H86.6694C87.4466 65.7247 88.1991 65.4807 88.7968 65.0356C89.3945 64.5905 89.7999 63.9722 89.9429 63.2876L99.9432 15.4873C100.033 15.0561 100.016 14.6125 99.8934 14.1878C99.7706 13.7632 99.5449 13.368 99.2325 13.0304C98.92 12.6927 98.5284 12.4209 98.0855 12.2342C97.6426 12.0475 97.1592 11.9505 96.6698 11.9501H19.2673L16.5672 2.26454C16.3873 1.61794 15.9713 1.04383 15.3854 0.633501C14.7995 0.223172 14.0773 0.0001841 13.3338 0H3.33344ZM40.0013 77.6754C40.0013 79.2601 39.2989 80.7799 38.0486 81.9004C36.7983 83.021 35.1026 83.6505 33.3344 83.6505C31.5662 83.6505 29.8705 83.021 28.6202 81.9004C27.3699 80.7799 26.6675 79.2601 26.6675 77.6754C26.6675 76.0908 27.3699 74.571 28.6202 73.4504C29.8705 72.3299 31.5662 71.7004 33.3344 71.7004C35.1026 71.7004 36.7983 72.3299 38.0486 73.4504C39.2989 74.571 40.0013 76.0908 40.0013 77.6754ZM86.6694 77.6754C86.6694 79.2601 85.967 80.7799 84.7168 81.9004C83.4665 83.021 81.7707 83.6505 80.0026 83.6505C78.2344 83.6505 76.5386 83.021 75.2884 81.9004C74.0381 80.7799 73.3357 79.2601 73.3357 77.6754C73.3357 76.0908 74.0381 74.571 75.2884 73.4504C76.5386 72.3299 78.2344 71.7004 80.0026 71.7004C81.7707 71.7004 83.4665 72.3299 84.7168 73.4504C85.967 74.571 86.6694 76.0908 86.6694 77.6754ZM75.6958 31.9903L55.6951 49.9154C55.3855 50.1936 55.0176 50.4144 54.6126 50.565C54.2077 50.7156 53.7735 50.7931 53.335 50.7931C52.8966 50.7931 52.4624 50.7156 52.0574 50.565C51.6525 50.4144 51.2846 50.1936 50.975 49.9154L40.9746 40.9529C40.6647 40.6751 40.4189 40.3454 40.2511 39.9824C40.0834 39.6195 39.9971 39.2305 39.9971 38.8377C39.9971 38.4449 40.0834 38.0559 40.2511 37.693C40.4189 37.3301 40.6647 37.0003 40.9746 36.7226C41.2846 36.4448 41.6525 36.2245 42.0575 36.0741C42.4624 35.9238 42.8964 35.8464 43.3347 35.8464C43.773 35.8464 44.207 35.9238 44.612 36.0741C45.0169 36.2245 45.3849 36.4448 45.6948 36.7226L53.335 43.5759L70.9756 27.76C71.2855 27.4822 71.6535 27.2619 72.0584 27.1116C72.4634 26.9612 72.8974 26.8839 73.3357 26.8839C73.774 26.8839 74.208 26.9612 74.6129 27.1116C75.0179 27.2619 75.3858 27.4822 75.6958 27.76C76.0057 28.0378 76.2515 28.3675 76.4193 28.7304C76.587 29.0934 76.6733 29.4823 76.6733 29.8752C76.6733 30.268 76.587 30.657 76.4193 31.0199C76.2515 31.3828 76.0057 31.7126 75.6958 31.9903Z" fill="#684BC9"/>
</svg>
