<svg width="41" height="51" viewBox="0 0 41 51" fill="none" xmlns="http://www.w3.org/2000/svg">
<path fill-rule="evenodd" clip-rule="evenodd" d="M9.87346 10.6265C9.87346 4.75766 14.6311 0 20.5 0C26.3688 0 31.1265 4.75766 31.1265 10.6265C31.1265 16.4954 26.3688 21.253 20.5 21.253C14.6311 21.253 9.87346 16.4954 9.87346 10.6265ZM12.6012 29.6204H12.545C9.85022 29.6204 7.75336 29.6204 6.1157 29.8335C4.44647 30.0507 3.14588 30.5007 2.11219 31.4817C2.02638 31.5631 1.94272 31.6468 1.86129 31.7326C0.880356 32.7663 0.430341 34.0668 0.213108 35.7361C-1.74148e-05 37.3737 -9.75432e-06 39.4706 7.78906e-07 42.1654V42.2216L3.00123e-07 42.2762C-1.45421e-05 44.0581 -2.60329e-05 45.4696 0.144171 46.5777C0.292469 47.7172 0.60461 48.6439 1.30979 49.3871C1.3671 49.4474 1.42597 49.5063 1.48636 49.5636C2.22947 50.2688 3.15624 50.5809 4.29576 50.7292C5.40377 50.8734 6.81526 50.8734 8.59719 50.8734H8.65182H32.3481H32.4028C34.1847 50.8734 35.5962 50.8734 36.7042 50.7292C37.8437 50.5809 38.7705 50.2688 39.5136 49.5636C39.574 49.5063 39.6329 49.4474 39.6902 49.3871C40.3954 48.6439 40.7075 47.7172 40.8558 46.5777C41 45.4696 41 44.0582 41 42.2762V42.2216V42.1654C41 39.4706 41 37.3737 40.7869 35.7361C40.5696 34.0668 40.1196 32.7663 39.1387 31.7326C39.0572 31.6468 38.9736 31.5631 38.8878 31.4817C37.8541 30.5007 36.5535 30.0507 34.8843 29.8335C33.2466 29.6204 31.1497 29.6204 28.4549 29.6204H28.3988H12.6012Z" fill="#240098"/>
</svg>
