<svg width="430" height="536" viewBox="0 0 430 536" fill="none" xmlns="http://www.w3.org/2000/svg">
<mask id="path-1-inside-1_1_679" fill="white">
<path fill-rule="evenodd" clip-rule="evenodd" d="M430 0H0V536H430V0ZM172.53 156C167.007 156 162.53 160.477 162.53 166V261.741C162.53 267.264 167.007 271.741 172.53 271.741H291.484C297.007 271.741 301.484 267.264 301.484 261.741V166C301.484 160.477 297.007 156 291.484 156H172.53Z"/>
</mask>
<path fill-rule="evenodd" clip-rule="evenodd" d="M430 0H0V536H430V0ZM172.53 156C167.007 156 162.53 160.477 162.53 166V261.741C162.53 267.264 167.007 271.741 172.53 271.741H291.484C297.007 271.741 301.484 267.264 301.484 261.741V166C301.484 160.477 297.007 156 291.484 156H172.53Z" fill="black" fill-opacity="0.56"/>
<path d="M0 0V-3H-3V0H0ZM430 0H433V-3H430V0ZM0 536H-3V539H0V536ZM430 536V539H433V536H430ZM0 3H430V-3H0V3ZM3 536V0H-3V536H3ZM430 533H0V539H430V533ZM427 0V536H433V0H427ZM165.53 166C165.53 162.134 168.664 159 172.53 159V153C165.351 153 159.53 158.82 159.53 166H165.53ZM165.53 261.741V166H159.53V261.741H165.53ZM172.53 268.741C168.664 268.741 165.53 265.607 165.53 261.741H159.53C159.53 268.92 165.351 274.741 172.53 274.741V268.741ZM291.484 268.741H172.53V274.741H291.484V268.741ZM298.484 261.741C298.484 265.607 295.35 268.741 291.484 268.741V274.741C298.663 274.741 304.484 268.92 304.484 261.741H298.484ZM298.484 166V261.741H304.484V166H298.484ZM291.484 159C295.35 159 298.484 162.134 298.484 166H304.484C304.484 158.82 298.663 153 291.484 153V159ZM172.53 159H291.484V153H172.53V159Z" fill="white" mask="url(#path-1-inside-1_1_679)"/>
</svg>
