<svg width="29" height="28" viewBox="0 0 29 28" fill="none" xmlns="http://www.w3.org/2000/svg">
<path fill-rule="evenodd" clip-rule="evenodd" d="M7.83648 21.4997C12.7991 20.7997 16.216 20.8599 21.1852 21.5242C21.545 21.5746 21.8739 21.749 22.1109 22.0152C22.348 22.2814 22.4773 22.6214 22.475 22.9725C22.475 23.3085 22.3553 23.6347 22.1393 23.8895C21.7627 24.3337 21.3769 24.7706 20.9822 25.1999H22.8969C23.0173 25.0613 23.1383 24.9199 23.2609 24.7764C23.6909 24.2672 23.9255 23.6302 23.9249 22.9732C23.9249 21.5557 22.8534 20.3342 21.3838 20.1382C16.2972 19.4585 12.7418 19.3934 7.62695 20.1151C6.14215 20.3244 5.07495 21.5648 5.07495 22.9921C5.07495 23.6256 5.28883 24.2521 5.6941 24.7596C5.81373 24.9094 5.9319 25.0564 6.04935 25.2006H7.91768C7.55041 24.7761 7.19218 24.3443 6.84323 23.9056C6.63585 23.643 6.52398 23.3216 6.52495 22.9914C6.52495 22.2375 7.0861 21.6054 7.83648 21.4997ZM14.5 14.6999C15.0712 14.6999 15.6369 14.5913 16.1646 14.3802C16.6924 14.1691 17.1719 13.8598 17.5759 13.4698C17.9798 13.0797 18.3002 12.6167 18.5188 12.1072C18.7374 11.5976 18.85 11.0515 18.85 10.4999C18.85 9.94835 18.7374 9.4022 18.5188 8.89263C18.3002 8.38306 17.9798 7.92006 17.5759 7.53005C17.1719 7.14005 16.6924 6.83068 16.1646 6.61961C15.6369 6.40854 15.0712 6.2999 14.5 6.2999C13.3463 6.2999 12.2398 6.7424 11.424 7.53005C10.6083 8.31771 10.15 9.38599 10.15 10.4999C10.15 11.6138 10.6083 12.6821 11.424 13.4698C12.2398 14.2574 13.3463 14.6999 14.5 14.6999ZM14.5 16.0999C16.0382 16.0999 17.5135 15.5099 18.6012 14.4597C19.6889 13.4095 20.3 11.9851 20.3 10.4999C20.3 9.01469 19.6889 7.59031 18.6012 6.5401C17.5135 5.4899 16.0382 4.8999 14.5 4.8999C12.9617 4.8999 11.4864 5.4899 10.3987 6.5401C9.31102 7.59031 8.69995 9.01469 8.69995 10.4999C8.69995 11.9851 9.31102 13.4095 10.3987 14.4597C11.4864 15.5099 12.9617 16.0999 14.5 16.0999Z" fill="#A2A2A2"/>
<path fill-rule="evenodd" clip-rule="evenodd" d="M14.5 26.6C21.7072 26.6 27.55 20.9587 27.55 14C27.55 7.0413 21.7072 1.4 14.5 1.4C7.29278 1.4 1.45 7.0413 1.45 14C1.45 20.9587 7.29278 26.6 14.5 26.6ZM14.5 28C22.5084 28 29 21.7322 29 14C29 6.2678 22.5084 0 14.5 0C6.49165 0 0 6.2678 0 14C0 21.7322 6.49165 28 14.5 28Z" fill="#A2A2A2"/>
</svg>
