<svg width="32" height="32" viewBox="0 0 32 32" fill="none" xmlns="http://www.w3.org/2000/svg">
<path d="M17.9531 29.5117C24.4922 29.5117 29.9062 24.0859 29.9062 17.5586C29.9062 11.0195 24.4805 5.60547 17.9414 5.60547C11.4141 5.60547 6 11.0195 6 17.5586C6 24.0859 11.4258 29.5117 17.9531 29.5117ZM17.9531 27.5195C12.4219 27.5195 8.00391 23.0898 8.00391 17.5586C8.00391 12.0273 12.4102 7.59766 17.9414 7.59766C23.4727 7.59766 27.9023 12.0273 27.9141 17.5586C27.9258 23.0898 23.4844 27.5195 17.9531 27.5195ZM11.8242 18.8242H17.9414C18.3984 18.8242 18.7617 18.4727 18.7617 18.0039V10.1055C18.7617 9.64844 18.3984 9.29688 17.9414 9.29688C17.4844 9.29688 17.1328 9.64844 17.1328 10.1055V17.1953H11.8242C11.3555 17.1953 11.0039 17.5469 11.0039 18.0039C11.0039 18.4727 11.3555 18.8242 11.8242 18.8242Z" fill="#9E9E9E"/>
</svg>
